<svg xmlns="http://www.w3.org/2000/svg" width="500" height="750" viewBox="0 0 500 750"><rect width="100%" height="100%" fill="#DDDDDD"/><path fill="#999999" d="M134.315 352.605h7.47v45.55h-4.35q-1.01 0-1.69-.33-.67-.33-1.3-1.12l-23.79-30.37q.19 2.08.19 3.85v27.97h-7.46v-45.55h4.44q.53 0 .93.05.39.05.69.19.3.14.58.41.29.26.63.71l23.88 30.49q-.09-1.1-.16-2.18-.06-1.07-.06-1.98v-27.69Zm30.68 12.73q3.59 0 6.54 1.16 2.94 1.17 5.04 3.31 2.09 2.14 3.23 5.23 1.13 3.09 1.13 6.9 0 3.84-1.13 6.93-1.14 3.08-3.23 5.26-2.1 2.17-5.04 3.34-2.95 1.16-6.54 1.16-3.62 0-6.58-1.16-2.96-1.17-5.06-3.34-2.09-2.18-3.24-5.26-1.15-3.09-1.15-6.93 0-3.81 1.15-6.9 1.15-3.09 3.24-5.23 2.1-2.14 5.06-3.31 2.96-1.16 6.58-1.16Zm0 27.31q4.03 0 5.97-2.71 1.94-2.71 1.94-7.94t-1.94-7.97q-1.94-2.74-5.97-2.74-4.09 0-6.06 2.76-1.97 2.75-1.97 7.95t1.97 7.92q1.97 2.73 6.06 2.73Zm32.67 6.01q-4.22 0-6.48-2.37-2.25-2.38-2.25-6.57v-18.05h-3.31q-.63 0-1.07-.41-.44-.41-.44-1.23v-3.09l5.2-.85 1.64-8.82q.16-.63.6-.97.44-.35 1.13-.35h4.03v10.17h8.63v5.55h-8.63v17.51q0 1.51.74 2.36.74.86 2.03.86.73 0 1.22-.18.49-.17.85-.36.36-.19.64-.36.29-.18.57-.18.35 0 .57.18.22.17.47.52l2.33 3.78q-1.7 1.41-3.91 2.14-2.2.72-4.56.72Zm57.93-39.31h-20.23v13.48h17.08v6.78h-17.08v18.55h-8.5v-45.55h28.73v6.74Zm20 5.99q3.59 0 6.53 1.16 2.95 1.17 5.04 3.31 2.1 2.14 3.23 5.23 1.14 3.09 1.14 6.9 0 3.84-1.14 6.93-1.13 3.08-3.23 5.26-2.09 2.17-5.04 3.34-2.94 1.16-6.53 1.16-3.62 0-6.59-1.16-2.96-1.17-5.05-3.34-2.1-2.18-3.25-5.26-1.15-3.09-1.15-6.93 0-3.81 1.15-6.9 1.15-3.09 3.25-5.23 2.09-2.14 5.05-3.31 2.97-1.16 6.59-1.16Zm0 27.31q4.03 0 5.97-2.71 1.93-2.71 1.93-7.94t-1.93-7.97q-1.94-2.74-5.97-2.74-4.1 0-6.07 2.76-1.96 2.75-1.96 7.95t1.96 7.92q1.97 2.73 6.07 2.73Zm41.96-26.81h7.78v32.32h-4.76q-1.54 0-1.95-1.42l-.54-2.58q-1.98 2.02-4.38 3.26-2.39 1.24-5.64 1.24-2.64 0-4.67-.89-2.03-.9-3.42-2.54-1.39-1.64-2.1-3.89-.7-2.25-.7-4.96v-20.54h7.78v20.54q0 2.96 1.37 4.58t4.11 1.62q2.01 0 3.78-.89 1.76-.9 3.34-2.48v-23.37Zm22.2 1.42.54 2.55q.98-.98 2.06-1.81 1.09-.84 2.3-1.42 1.21-.58 2.6-.91 1.39-.33 3.02-.33 2.65 0 4.7.89 2.05.9 3.42 2.52 1.37 1.63 2.07 3.88.71 2.25.71 4.96v20.57h-7.78v-20.57q0-2.96-1.35-4.58-1.36-1.62-4.13-1.62-2.01 0-3.78.91-1.76.91-3.34 2.49v23.37h-7.78v-32.32h4.76q1.51 0 1.98 1.42Zm49.08 21.32v-14.49q-1.32-1.6-2.88-2.26-1.56-.67-3.36-.67-1.76 0-3.18.67-1.42.66-2.42 2-1.01 1.33-1.55 3.4-.53 2.06-.53 4.86 0 2.84.45 4.81.46 1.97 1.31 3.21.85 1.25 2.08 1.8t2.74.55q2.43 0 4.13-1.01 1.7-1.01 3.21-2.87Zm0-37.23h7.78v46.81h-4.76q-1.54 0-1.95-1.42l-.66-3.12q-1.95 2.24-4.49 3.63-2.53 1.38-5.9 1.38-2.65 0-4.86-1.1-2.2-1.1-3.79-3.2-1.59-2.09-2.46-5.18-.86-3.09-.86-7.06 0-3.59.97-6.67.98-3.09 2.81-5.36 1.82-2.27 4.37-3.54 2.56-1.28 5.74-1.28 2.71 0 4.63.85t3.43 2.3v-17.04Z"/></svg>